<svg width="64" height="64" viewBox="0 0 64 64" fill="none" xmlns="http://www.w3.org/2000/svg">
<path d="M6.11435 31.4087C7.15575 30.3673 8.84421 30.3673 9.8856 31.4087L21.1993 42.7223C22.2407 43.7637 22.2407 45.4521 21.1993 46.4935C20.1579 47.5349 18.4695 47.5349 17.4281 46.4935L6.11435 35.1799C5.07297 34.1385 5.07297 32.4501 6.11435 31.4087ZM53.3862 20.0948C54.4276 19.0534 56.116 19.0534 57.1575 20.0947C58.1989 21.136 58.1991 22.8245 57.1577 23.8659L34.5326 46.4934C34.0326 46.9936 33.3543 47.2746 32.647 47.2746C31.9397 47.2746 31.2614 46.9936 30.7613 46.4935L19.4477 35.1799C18.4063 34.1385 18.4063 32.4501 19.4477 31.4087C20.4891 30.3673 22.1776 30.3673 23.219 31.4087L32.6469 40.8366L53.3862 20.0948ZM40.0469 20.1034C41.0835 19.0573 42.7719 19.0496 43.818 20.0862C44.8642 21.1228 44.8719 22.8113 43.8352 23.8574L35.2275 32.5438C34.1908 33.59 32.5024 33.5977 31.4563 32.561C30.4102 31.5244 30.4025 29.836 31.4391 28.7898L40.0469 20.1034Z" fill="#22C55E"/>
</svg>
