<svg width="64" height="64" viewBox="0 0 64 64" fill="none" xmlns="http://www.w3.org/2000/svg">
<path fill-rule="evenodd" clip-rule="evenodd" d="M31.7384 4.13708C16.0562 4.13708 3.37866 16.9079 3.37866 32.7071C3.37866 45.3363 11.5016 56.0266 22.7702 59.8103C24.1791 60.0947 24.6952 59.1955 24.6952 58.4391C24.6952 57.7768 24.6487 55.5065 24.6487 53.141C16.7597 54.8442 15.1169 49.7352 15.1169 49.7352C13.8491 46.4241 11.9706 45.5731 11.9706 45.5731C9.38857 43.8229 12.1587 43.8229 12.1587 43.8229C15.0229 44.0122 16.5258 46.7556 16.5258 46.7556C19.0608 51.1069 23.1458 49.8775 24.7892 49.1205C25.0237 47.2757 25.7755 45.9986 26.5737 45.2893C20.2816 44.6269 13.6616 42.1674 13.6616 31.1932C13.6616 28.0713 14.7878 25.5172 16.5722 23.5307C16.2907 22.8214 15.3044 19.8881 16.8544 15.9623C16.8544 15.9623 19.2489 15.2053 24.6481 18.8949C26.9597 18.2695 29.3437 17.9514 31.7384 17.9487C34.1329 17.9487 36.5739 18.2802 38.828 18.8949C44.2278 15.2053 46.6223 15.9623 46.6223 15.9623C48.1723 19.8881 47.1854 22.8214 46.9039 23.5307C48.7354 25.5172 49.8151 28.0713 49.8151 31.1932C49.8151 42.1674 43.1951 44.5793 36.856 45.2893C37.8893 46.1879 38.781 47.8904 38.781 50.5868C38.781 54.4181 38.7345 57.4929 38.7345 58.4386C38.7345 59.1955 39.2512 60.0947 40.6595 59.8108C51.9281 56.026 60.051 45.3363 60.051 32.7071C60.0975 16.9079 47.3735 4.13708 31.7384 4.13708Z" fill="#F3F4F6"/>
</svg>
