<svg width="56" height="56" viewBox="0 0 56 56" fill="none" xmlns="http://www.w3.org/2000/svg">
<path d="M45.15 3.5H10.85C6.79071 3.5 3.5 6.79071 3.5 10.85V45.15C3.5 49.2093 6.79071 52.5 10.85 52.5H45.15C49.2093 52.5 52.5 49.2093 52.5 45.15V10.85C52.5 6.79071 49.2093 3.5 45.15 3.5Z" fill="#3178C6"/>
<path d="M25.7988 31.6797C25.7988 31.1274 26.2465 30.6797 26.7988 30.6797H30.9238C31.4761 30.6797 31.9238 30.232 31.9238 29.6797V27.7559C31.9238 27.2036 31.4761 26.7559 30.9238 26.7559H15.793C15.2407 26.7559 14.793 27.2036 14.793 27.7559V29.6797C14.793 30.232 15.2407 30.6797 15.793 30.6797H19.918C20.4703 30.6797 20.918 31.1274 20.918 31.6797V47.1934C20.918 47.7456 21.3657 48.1934 21.918 48.1934H24.7988C25.3511 48.1934 25.7988 47.7456 25.7988 47.1934V31.6797ZM33.8379 46.6284C33.8379 47.0019 34.0442 47.3488 34.3888 47.4927C35.0465 47.7674 35.7984 47.9804 36.6133 48.1359C37.666 48.3369 38.8145 48.4326 39.9629 48.4326C41.1113 48.4326 42.1641 48.3273 43.2168 48.1072C44.2695 47.8871 45.1309 47.5234 45.8965 47.0545C46.6717 46.5473 47.332 45.9061 47.7148 45.0447C48.0977 44.1834 48.3943 43.2264 48.3943 41.9822C48.3943 41.1113 48.2604 40.3553 48.002 39.6854C47.7436 39.0154 47.3703 38.4412 46.8535 37.9627C46.3654 37.4555 45.8008 37.0057 45.1309 36.6229C44.4609 36.24 43.6953 35.8381 42.834 35.4744C42.2023 35.216 41.6855 34.9672 41.1113 34.7184C40.6137 34.4695 40.183 34.2207 39.8672 33.9719C39.5131 33.7135 39.2451 33.4455 39.0537 33.168C38.8623 32.8809 38.7666 32.565 38.7666 32.2109C38.7666 31.8856 38.8518 31.5889 39.025 31.3209C39.1982 31.0529 39.4365 30.8328 39.7428 30.6414C40.049 30.45 40.4318 30.3064 40.8912 30.2012C41.341 30.0959 41.8387 30.0481 42.4225 30.0481C42.8244 30.0481 43.2455 30.0777 43.6666 30.138C44.1068 30.1983 44.5566 30.2911 45.0064 30.4156C45.4563 30.54 45.8965 30.6931 46.3463 30.8845C46.8457 31.1115 47.4947 30.7662 47.4947 30.2176V27.7356C47.4947 27.3208 47.2399 26.9451 46.8436 26.8226C46.2967 26.6537 45.7139 26.5199 45.1021 26.4247C44.2408 26.2907 43.2838 26.2238 42.1354 26.2238C40.9869 26.2238 39.9342 26.3482 38.8814 26.5874C37.8287 26.8267 36.9674 27.2095 36.2018 27.7359C35.4266 28.2527 34.8619 28.8843 34.3834 29.7456C33.9336 30.5495 33.7135 31.4683 33.7135 32.6167C33.7135 34.0523 34.125 35.2964 34.9576 36.2534C35.7807 37.3062 37.0631 38.0718 38.69 38.8374C39.3504 39.1054 39.9342 39.3734 40.5084 39.6318C41.0826 39.8902 41.5611 40.1581 41.9439 40.4357C42.3555 40.7132 42.6809 41.0195 42.901 41.3448C43.1402 41.6702 43.2646 42.0531 43.2646 42.4933C43.2646 42.7995 43.19 43.0866 43.0445 43.3546C42.8991 43.6226 42.6713 43.8523 42.365 44.0437C42.0588 44.2351 41.6855 44.3882 41.2166 44.5031C40.7668 44.6083 40.2596 44.6657 39.5896 44.6657C38.5369 44.6657 37.4842 44.4839 36.5271 44.1202C36.2262 44.0163 35.933 43.8974 35.6519 43.7674C34.8815 43.4112 33.8379 43.9343 33.8379 44.783V46.6284Z" fill="white"/>
</svg>
