<svg width="640" height="176" viewBox="0 0 640 176" fill="none" xmlns="http://www.w3.org/2000/svg">
<path d="M0 12C0 5.37258 5.37258 0 12 0H628C634.627 0 640 5.37258 640 12V164C640 170.627 634.627 176 628 176H12C5.37259 176 0 170.627 0 164V12Z" fill="url(#paint0_linear_21_40)"/>
<path d="M237.65 63.5H203.35C199.291 63.5 196 66.7907 196 70.85V105.15C196 109.209 199.291 112.5 203.35 112.5H237.65C241.709 112.5 245 109.209 245 105.15V70.85C245 66.7907 241.709 63.5 237.65 63.5Z" fill="#3178C6"/>
<path d="M218.299 91.6797C218.299 91.1274 218.747 90.6797 219.299 90.6797H223.424C223.976 90.6797 224.424 90.232 224.424 89.6797V87.7559C224.424 87.2036 223.976 86.7559 223.424 86.7559H208.293C207.741 86.7559 207.293 87.2036 207.293 87.7559V89.6797C207.293 90.232 207.741 90.6797 208.293 90.6797H212.418C212.97 90.6797 213.418 91.1274 213.418 91.6797V107.193C213.418 107.746 213.866 108.193 214.418 108.193H217.299C217.851 108.193 218.299 107.746 218.299 107.193V91.6797ZM226.338 106.628C226.338 107.002 226.544 107.349 226.889 107.493C227.547 107.767 228.298 107.98 229.113 108.136C230.166 108.337 231.314 108.433 232.463 108.433C233.611 108.433 234.664 108.327 235.717 108.107C236.77 107.887 237.631 107.523 238.396 107.054C239.172 106.547 239.832 105.906 240.215 105.045C240.598 104.183 240.894 103.226 240.894 101.982C240.894 101.111 240.76 100.355 240.502 99.6854C240.244 99.0154 239.87 98.4412 239.354 97.9627C238.865 97.4555 238.301 97.0057 237.631 96.6229C236.961 96.24 236.195 95.8381 235.334 95.4744C234.702 95.216 234.186 94.9672 233.611 94.7184C233.114 94.4695 232.683 94.2207 232.367 93.9719C232.013 93.7135 231.745 93.4455 231.554 93.168C231.362 92.8809 231.267 92.565 231.267 92.2109C231.267 91.8856 231.352 91.5889 231.525 91.3209C231.698 91.0529 231.937 90.8328 232.243 90.6414C232.549 90.45 232.932 90.3064 233.391 90.2012C233.841 90.0959 234.339 90.0481 234.922 90.0481C235.324 90.0481 235.746 90.0777 236.167 90.138C236.607 90.1983 237.057 90.2911 237.506 90.4156C237.956 90.54 238.396 90.6931 238.846 90.8845C239.346 91.1115 239.995 90.7662 239.995 90.2176V87.7356C239.995 87.3208 239.74 86.9451 239.344 86.8226C238.797 86.6537 238.214 86.5199 237.602 86.4247C236.741 86.2907 235.784 86.2238 234.635 86.2238C233.487 86.2238 232.434 86.3482 231.381 86.5874C230.329 86.8267 229.467 87.2095 228.702 87.7359C227.927 88.2527 227.362 88.8843 226.883 89.7456C226.434 90.5495 226.213 91.4683 226.213 92.6167C226.213 94.0523 226.625 95.2964 227.458 96.2534C228.281 97.3062 229.563 98.0718 231.19 98.8374C231.85 99.1054 232.434 99.3734 233.008 99.6318C233.583 99.8902 234.061 100.158 234.444 100.436C234.855 100.713 235.181 101.019 235.401 101.345C235.64 101.67 235.765 102.053 235.765 102.493C235.765 102.8 235.69 103.087 235.545 103.355C235.399 103.623 235.171 103.852 234.865 104.044C234.559 104.235 234.186 104.388 233.717 104.503C233.267 104.608 232.76 104.666 232.09 104.666C231.037 104.666 229.984 104.484 229.027 104.12C228.726 104.016 228.433 103.897 228.152 103.767C227.382 103.411 226.338 103.934 226.338 104.783V106.628Z" fill="white"/>
<path d="M285.575 82.5982C285.484 81.606 285.083 80.8348 284.37 80.2846C283.667 79.7254 282.661 79.4458 281.353 79.4458C280.487 79.4458 279.766 79.5585 279.189 79.784C278.611 80.0095 278.178 80.3207 277.89 80.7176C277.601 81.1054 277.452 81.5519 277.443 82.057C277.425 82.4719 277.506 82.8373 277.687 83.1529C277.876 83.4686 278.147 83.7483 278.499 83.9918C278.859 84.2263 279.292 84.4338 279.797 84.6142C280.303 84.7946 280.871 84.9524 281.502 85.0877L283.883 85.6289C285.254 85.9266 286.463 86.3234 287.509 86.8195C288.565 87.3156 289.449 87.9064 290.161 88.5919C290.883 89.2775 291.429 90.0667 291.798 90.9597C292.168 91.8526 292.358 92.8538 292.367 93.9633C292.358 95.7131 291.916 97.215 291.041 98.4687C290.166 99.7225 288.907 100.683 287.266 101.351C285.633 102.018 283.662 102.352 281.353 102.352C279.035 102.352 277.015 102.005 275.292 101.31C273.569 100.615 272.23 99.5601 271.274 98.144C270.318 96.7279 269.826 94.9374 269.799 92.7727H276.212C276.266 93.6656 276.505 94.4098 276.929 95.0051C277.353 95.6004 277.935 96.0514 278.674 96.3581C279.423 96.6647 280.289 96.8181 281.272 96.8181C282.174 96.8181 282.941 96.6963 283.572 96.4528C284.213 96.2092 284.704 95.871 285.047 95.438C285.39 95.0051 285.566 94.509 285.575 93.9498C285.566 93.4266 285.403 92.9801 285.088 92.6103C284.772 92.2315 284.285 91.9067 283.626 91.6362C282.977 91.3565 282.147 91.0995 281.137 90.865L278.241 90.1885C275.842 89.6382 273.953 88.7498 272.572 87.5231C271.192 86.2874 270.507 84.6187 270.516 82.517C270.507 80.8033 270.967 79.3015 271.896 78.0116C272.825 76.7218 274.11 75.7161 275.752 74.9945C277.394 74.2729 279.265 73.9121 281.367 73.9121C283.514 73.9121 285.376 74.2774 286.955 75.008C288.542 75.7296 289.773 76.7443 290.648 78.0522C291.523 79.3601 291.97 80.8754 291.988 82.5982H285.575ZM307.479 81.2182V86.0889H294.369V81.2182H307.479ZM297.116 76.2392H303.732V95.4651C303.732 95.871 303.795 96.2002 303.921 96.4528C304.056 96.6963 304.25 96.8722 304.503 96.9804C304.755 97.0797 305.058 97.1293 305.409 97.1293C305.662 97.1293 305.928 97.1067 306.208 97.0616C306.496 97.0075 306.713 96.9624 306.857 96.9263L307.858 101.702C307.543 101.793 307.096 101.905 306.519 102.041C305.951 102.176 305.27 102.262 304.476 102.298C302.924 102.37 301.594 102.189 300.485 101.756C299.384 101.314 298.541 100.629 297.954 99.6999C297.377 98.7709 297.098 97.6028 297.116 96.1957V76.2392ZM316.714 102.352C315.388 102.352 314.211 102.131 313.182 101.689C312.163 101.238 311.356 100.561 310.76 99.6593C310.174 98.7483 309.881 97.6073 309.881 96.2363C309.881 95.0817 310.084 94.1076 310.49 93.3138C310.896 92.5201 311.455 91.8752 312.168 91.3791C312.88 90.883 313.701 90.5087 314.63 90.2561C315.559 89.9945 316.551 89.8186 317.607 89.7284C318.788 89.6202 319.74 89.5075 320.461 89.3902C321.183 89.2639 321.706 89.088 322.031 88.8625C322.365 88.628 322.531 88.2988 322.531 87.8749V87.8072C322.531 87.1127 322.292 86.576 321.814 86.1972C321.336 85.8183 320.691 85.6289 319.88 85.6289C319.005 85.6289 318.301 85.8183 317.769 86.1972C317.237 86.576 316.898 87.0991 316.754 87.7666L310.652 87.5501C310.833 86.2874 311.297 85.1599 312.046 84.1677C312.803 83.1665 313.841 82.3817 315.158 81.8135C316.484 81.2362 318.076 80.9476 319.934 80.9476C321.26 80.9476 322.482 81.1054 323.6 81.4211C324.719 81.7278 325.693 82.1788 326.523 82.7741C327.353 83.3604 327.993 84.082 328.444 84.9389C328.904 85.7958 329.134 86.7744 329.134 87.8749V102H322.91V99.1046H322.748C322.378 99.8082 321.904 100.403 321.327 100.891C320.759 101.378 320.087 101.743 319.311 101.986C318.545 102.23 317.679 102.352 316.714 102.352ZM318.757 98.0222C319.469 98.0222 320.11 97.8779 320.678 97.5893C321.255 97.3006 321.715 96.9038 322.058 96.3987C322.401 95.8845 322.572 95.2892 322.572 94.6127V92.6374C322.383 92.7366 322.153 92.8268 321.882 92.908C321.62 92.9891 321.332 93.0658 321.016 93.138C320.7 93.2101 320.376 93.2733 320.042 93.3274C319.708 93.3815 319.388 93.4311 319.081 93.4762C318.459 93.5754 317.927 93.7288 317.485 93.9362C317.052 94.1437 316.718 94.4143 316.484 94.748C316.258 95.0727 316.145 95.4606 316.145 95.9116C316.145 96.5971 316.389 97.1202 316.876 97.481C317.372 97.8418 317.999 98.0222 318.757 98.0222ZM333.179 102V81.2182H339.606V85.0065H339.822C340.201 83.6355 340.819 82.6163 341.676 81.9488C342.533 81.2723 343.53 80.9341 344.666 80.9341C344.973 80.9341 345.289 80.9566 345.613 81.0017C345.938 81.0378 346.24 81.0964 346.52 81.1776V86.9278C346.204 86.8195 345.789 86.7338 345.275 86.6707C344.77 86.6076 344.319 86.576 343.922 86.576C343.137 86.576 342.429 86.7519 341.798 87.1037C341.175 87.4464 340.684 87.929 340.323 88.5513C339.971 89.1647 339.795 89.8863 339.795 90.7161V102H333.179ZM361.913 81.2182V86.0889H348.803V81.2182H361.913ZM351.549 76.2392H358.166V95.4651C358.166 95.871 358.229 96.2002 358.355 96.4528C358.49 96.6963 358.684 96.8722 358.937 96.9804C359.189 97.0797 359.491 97.1293 359.843 97.1293C360.096 97.1293 360.362 97.1067 360.642 97.0616C360.93 97.0075 361.147 96.9624 361.291 96.9263L362.292 101.702C361.976 101.793 361.53 101.905 360.953 102.041C360.384 102.176 359.703 102.262 358.91 102.298C357.358 102.37 356.028 102.189 354.918 101.756C353.818 101.314 352.975 100.629 352.388 99.6999C351.811 98.7709 351.531 97.6028 351.549 96.1957V76.2392ZM374.78 102.392C372.606 102.392 370.73 101.964 369.152 101.107C367.582 100.241 366.374 99.0099 365.526 97.4134C364.687 95.8078 364.268 93.9001 364.268 91.6903C364.268 89.5435 364.691 87.6674 365.539 86.0619C366.387 84.4473 367.582 83.1935 369.125 82.3006C370.667 81.3986 372.485 80.9476 374.577 80.9476C376.057 80.9476 377.409 81.1776 378.636 81.6376C379.863 82.0976 380.923 82.7786 381.816 83.6806C382.709 84.5826 383.403 85.6966 383.899 87.0225C384.395 88.3394 384.643 89.8502 384.643 91.555V93.2056H366.581V89.3631H378.487C378.478 88.6596 378.311 88.0327 377.987 87.4825C377.662 86.9323 377.216 86.5038 376.647 86.1972C376.088 85.8815 375.443 85.7236 374.713 85.7236C373.973 85.7236 373.31 85.8905 372.724 86.2242C372.137 86.5489 371.673 86.9954 371.33 87.5637C370.987 88.1229 370.807 88.7588 370.789 89.4714V93.3815C370.789 94.2294 370.956 94.9735 371.289 95.6139C371.623 96.2453 372.097 96.7369 372.71 97.0887C373.323 97.4404 374.054 97.6163 374.902 97.6163C375.488 97.6163 376.02 97.5352 376.498 97.3728C376.977 97.2104 377.387 96.9714 377.73 96.6557C378.072 96.34 378.33 95.9522 378.501 95.4922L384.576 95.668C384.323 97.03 383.769 98.2162 382.912 99.2264C382.064 100.228 380.95 101.008 379.57 101.567C378.19 102.117 376.593 102.392 374.78 102.392ZM388.023 102V81.2182H394.449V85.0065H394.666C395.044 83.6355 395.662 82.6163 396.519 81.9488C397.376 81.2723 398.373 80.9341 399.509 80.9341C399.816 80.9341 400.132 80.9566 400.456 81.0017C400.781 81.0378 401.083 81.0964 401.363 81.1776V86.9278C401.047 86.8195 400.632 86.7338 400.118 86.6707C399.613 86.6076 399.162 86.576 398.765 86.576C397.98 86.576 397.272 86.7519 396.641 87.1037C396.019 87.4464 395.527 87.929 395.166 88.5513C394.814 89.1647 394.639 89.8863 394.639 90.7161V102H388.023ZM423.975 81.2182V86.0889H410.864V81.2182H423.975ZM413.611 76.2392H420.227V95.4651C420.227 95.871 420.29 96.2002 420.416 96.4528C420.552 96.6963 420.746 96.8722 420.998 96.9804C421.251 97.0797 421.553 97.1293 421.905 97.1293C422.157 97.1293 422.423 97.1067 422.703 97.0616C422.991 97.0075 423.208 96.9624 423.352 96.9263L424.353 101.702C424.038 101.793 423.591 101.905 423.014 102.041C422.446 102.176 421.765 102.262 420.971 102.298C419.42 102.37 418.089 102.189 416.98 101.756C415.879 101.314 415.036 100.629 414.45 99.6999C413.872 98.7709 413.593 97.6028 413.611 96.1957V76.2392ZM445.233 87.5637L439.158 87.726C439.095 87.2931 438.924 86.9097 438.644 86.576C438.365 86.2332 437.999 85.9672 437.548 85.7777C437.106 85.5793 436.592 85.4801 436.006 85.4801C435.239 85.4801 434.585 85.6334 434.044 85.9401C433.512 86.2468 433.25 86.6617 433.259 87.1848C433.25 87.5907 433.413 87.9425 433.747 88.2402C434.089 88.5378 434.698 88.7768 435.573 88.9572L439.578 89.7149C441.652 90.1118 443.195 90.7702 444.205 91.6903C445.224 92.6103 445.739 93.828 445.748 95.3433C445.739 96.7685 445.315 98.0087 444.476 99.064C443.646 100.119 442.509 100.94 441.066 101.526C439.623 102.104 437.972 102.392 436.114 102.392C433.147 102.392 430.806 101.784 429.092 100.566C427.388 99.3391 426.413 97.6975 426.17 95.641L432.705 95.4786C432.849 96.2363 433.223 96.8136 433.828 97.2104C434.432 97.6073 435.203 97.8058 436.141 97.8058C436.989 97.8058 437.679 97.6479 438.211 97.3322C438.744 97.0165 439.014 96.5971 439.023 96.0739C439.014 95.6049 438.807 95.2306 438.401 94.951C437.995 94.6623 437.359 94.4368 436.493 94.2745L432.867 93.5844C430.784 93.2056 429.232 92.5066 428.213 91.4873C427.194 90.4591 426.689 89.1512 426.698 87.5637C426.689 86.1746 427.058 84.9885 427.807 84.0053C428.556 83.0131 429.62 82.2555 431 81.7323C432.38 81.2092 434.008 80.9476 435.884 80.9476C438.698 80.9476 440.917 81.5384 442.541 82.72C444.165 83.8926 445.062 85.5071 445.233 87.5637Z" fill="white"/>
<defs>
<linearGradient id="paint0_linear_21_40" x1="0" y1="0" x2="604.091" y2="259.57" gradientUnits="userSpaceOnUse">
<stop stop-color="#171717"/>
<stop offset="1" stop-color="#262626"/>
</linearGradient>
</defs>
</svg>
